# xmcd CD database file
#
# Track frame offsets:
#	150
#	24950
#	43747
#	59490
#	81347
#	105005
#	134977
#
# Disc length: 2274 seconds
#
# Revision: 0
# Processed by: cddbd v1.5.1PL0 Copyright (c) Steve Scherf et al.
# Submitted via: CDex 1.40Beta9
#
DISCID=5908e007
DTITLE=Deen with 亀渕友香 and The Voices of Japan - 愛の鐘が世界に響きますように…
DYEAR=2004
DGENRE=J-Pop
TTITLE0=愛の鐘が世界に響きますように…
TTITLE1=Fine Day
TTITLE2=White Christmas
TTITLE3=OCEAN〜The Korean Version〜
TTITLE4=愛の鐘が世界に響きますように…(Instrumental)
TTITLE5=Fine day(Instrumental)
TTITLE6=date
EXTD=YEAR: 2004/12/22
EXTT0=
EXTT1=
EXTT2=
EXTT3=
EXTT4=
EXTT5=
EXTT6=
PLAYORDER=
